<?xml version="1.0" standalone="no"?>
<!DOCTYPE svg PUBLIC "-//W3C//DTD SVG 20010904//EN"
 "http://www.w3.org/TR/2001/REC-SVG-20010904/DTD/svg10.dtd">
<svg version="1.0" xmlns="http://www.w3.org/2000/svg"
 width="500.000000pt" height="500.000000pt" viewBox="0 0 500.000000 500.000000"
 preserveAspectRatio="xMidYMid meet">
<metadata>
Created by potrace 1.16, written by Peter Selinger 2001-2019
</metadata>
<g transform="translate(0.000000,500.000000) scale(0.100000,-0.100000)"
fill="#000000" stroke="none">
<path d="M3934 2923 l-70 -4 -18 -152 c-10 -84 -20 -162 -23 -174 l-5 -23 168
6 c93 4 169 7 170 8 1 1 4 13 8 29 l6 27 -126 0 -126 0 6 31 c3 17 6 38 6 45
0 10 26 14 113 16 l112 3 3 28 3 27 -110 -6 -111 -7 0 29 c0 16 4 34 8 40 4 7
55 15 124 19 107 7 117 9 122 29 3 11 6 24 6 29 0 7 -118 7 -266 0z"/>
<path d="M3747 2913 c-3 -5 -10 -61 -17 -125 -7 -65 -16 -118 -20 -118 -3 0
-43 54 -89 120 l-82 121 -57 -3 -57 -3 -17 -140 c-9 -77 -19 -155 -22 -172 -5
-33 -5 -33 39 -33 49 0 43 -15 66 160 6 47 12 86 14 88 2 2 41 -51 86 -117
l83 -121 58 0 c32 0 58 1 58 3 0 1 9 72 20 157 26 204 28 190 -19 190 -22 0
-42 -3 -44 -7z"/>
<path d="M3041 2725 c-57 -97 -101 -178 -98 -181 3 -3 25 -2 50 1 38 6 47 12
60 41 l17 34 94 0 94 0 11 -33 c10 -31 13 -32 56 -29 25 2 45 7 45 11 0 3 -26
79 -57 169 l-58 162 -55 0 -56 0 -103 -175z"/>
<path d="M2761 2754 c-46 -74 -84 -134 -86 -132 -1 2 -24 61 -51 132 l-48 128
-61 -7 c-33 -3 -61 -7 -61 -8 -4 -4 -44 -340 -42 -343 2 -1 22 0 45 3 l41 5
12 102 c6 55 14 109 18 118 5 12 21 -19 52 -102 l45 -120 42 0 42 0 65 108
c35 59 72 116 80 127 15 19 15 19 11 -10 -9 -54 -25 -186 -25 -201 0 -12 10
-14 42 -12 l42 3 18 135 c9 74 19 152 23 173 l5 37 -63 0 -62 0 -84 -136z"/>
<path d="M1786 2859 c-238 -37 -293 -310 -71 -360 108 -24 244 21 299 99 38
54 46 131 18 182 -35 63 -135 96 -246 79z m134 -88 c36 -26 47 -78 25 -124
-56 -118 -275 -112 -275 8 0 69 41 116 117 134 48 11 101 4 133 -18z"/>
<path d="M2113 2863 c-42 -4 -43 -5 -43 -39 l0 -36 65 7 c76 9 71 23 50 -150
-8 -65 -15 -121 -15 -122 0 -2 20 -3 45 -3 52 0 48 -7 65 140 17 150 10 139
88 142 l67 3 3 33 3 32 -143 -2 c-79 -1 -162 -3 -185 -5z"/>
<path d="M875 2780 c-9 -14 -75 -350 -75 -382 0 -30 -1 -30 120 -53 47 -10 88
-19 92 -21 12 -8 -32 -84 -49 -84 -35 0 -3 -11 91 -30 112 -23 141 -25 114 -9
-13 7 -18 23 -18 55 0 38 3 45 18 40 63 -18 194 -38 202 -30 8 8 60 238 60
264 0 4 -17 3 -38 -3 -67 -18 -142 37 -142 103 0 29 26 76 52 94 43 30 114 17
150 -28 20 -24 23 -87 7 -119 -10 -20 -10 -20 4 -7 15 15 20 41 18 88 -1 13
-16 39 -35 58 -28 28 -42 34 -75 34 -57 0 -100 -24 -117 -66 -8 -19 -18 -34
-22 -34 -18 0 -356 70 -360 75 -3 3 0 16 6 29 l10 24 168 -34 c170 -35 191
-38 182 -29 -4 4 -194 44 -325 68 -18 4 -35 2 -38 -3z m37 -86 c17 -9 51 -16
77 -16 25 0 51 -4 56 -8 6 -5 49 -16 97 -25 81 -16 87 -19 93 -45 7 -33 61
-85 97 -94 15 -3 38 -2 52 4 23 8 26 7 26 -13 -1 -25 -26 -146 -31 -151 -4 -3
-552 103 -557 109 -3 3 35 219 43 243 6 16 10 15 47 -4z m191 -308 c147 -29
270 -56 273 -58 2 -3 0 -17 -5 -31 -7 -17 -16 -24 -28 -21 -10 2 -124 24 -253
49 -129 26 -245 49 -257 52 -17 4 -23 12 -23 34 0 17 5 29 13 29 7 0 133 -24
280 -54z"/>
<path d="M3266 2448 c-8 -37 -36 -271 -36 -301 0 -25 3 -27 40 -27 24 0 42 5
45 13 2 6 11 68 20 137 8 69 18 142 21 163 l6 37 -46 0 c-39 0 -46 -3 -50 -22z"/>
<path d="M2738 2453 c-24 -4 -28 -10 -33 -51 -4 -26 -7 -54 -8 -62 -2 -12 -26
-17 -105 -23 -57 -5 -105 -7 -107 -5 -2 2 0 33 5 68 5 35 8 66 6 67 -1 2 -23
0 -47 -3 l-45 -6 -21 -172 c-12 -94 -20 -172 -20 -173 1 0 23 1 48 4 l46 5 9
72 9 71 104 3 103 3 -7 -75 -7 -74 44 5 c24 3 44 7 46 8 3 3 42 304 42 328 0
17 -7 18 -62 10z"/>
<path d="M2835 2448 c-2 -7 -11 -69 -20 -138 -8 -69 -18 -142 -21 -162 l-6
-38 45 0 c48 0 57 9 57 58 0 64 8 72 69 72 31 0 61 -4 68 -8 6 -4 21 -29 32
-55 12 -28 30 -52 45 -58 28 -13 89 -5 104 14 14 16 -1 42 -20 34 -20 -7 -30
1 -55 51 l-22 42 34 14 c70 30 93 118 41 162 -26 23 -33 24 -187 24 -119 0
-161 -3 -164 -12z m275 -63 c16 -19 5 -61 -18 -74 -9 -5 -54 -10 -99 -12 l-83
-4 0 30 c0 73 3 75 100 75 65 0 91 -4 100 -15z"/>
<path d="M2156 2431 c-38 -6 -41 -9 -142 -178 l-103 -173 50 0 c46 0 50 2 65
34 16 33 17 33 106 40 49 4 93 4 98 1 4 -3 11 -19 15 -35 6 -28 9 -30 56 -30
27 0 49 3 49 8 0 4 -27 81 -59 172 -63 179 -58 174 -135 161z"/>
<path d="M1753 2423 c-112 -3 -153 -7 -153 -16 0 -6 -3 -22 -6 -34 -6 -22 -4
-23 65 -23 l71 0 -5 -37 c-3 -21 -12 -84 -19 -140 l-12 -103 48 0 c32 0 48 4
48 13 0 7 7 67 15 132 8 66 15 123 15 127 0 4 32 10 70 14 41 4 70 11 70 18 0
6 3 21 6 34 6 20 3 22 -27 20 -19 -1 -103 -4 -186 -5z"/>
</g>
</svg>
